<?xml version="1.0" encoding="UTF-8" standalone="no"?>
<!DOCTYPE svg PUBLIC "-//W3C//DTD SVG 1.1//EN"
 "http://www.w3.org/Graphics/SVG/1.1/DTD/svg11.dtd">
<!-- Generated by graphviz version 8.1.0 (20230707.0739)
 -->
<!-- Title: G Pages: 1 -->
<svg width="556pt" height="297pt"
 viewBox="0.00 0.00 556.48 297.00" xmlns="http://www.w3.org/2000/svg" xmlns:xlink="http://www.w3.org/1999/xlink">
<g id="graph0" class="graph" transform="scale(1 1) rotate(0) translate(4 293)">
<title>G</title><style>.edge>path:hover{stroke-width:8}</style>
<polygon fill="white" stroke="none" points="-4,4 -4,-293 552.48,-293 552.48,4 -4,4"/>
<!-- PandasModelClass -->
<g id="node1" class="node">
<title>PandasModelClass</title><style>.edge>path:hover{stroke-width:8}</style>
<ellipse fill="#b34c4c" stroke="black" cx="463.7" cy="-199" rx="60.13" ry="18"/>
<text text-anchor="middle" x="463.7" y="-195.5" font-family="Helvetica,sans-Serif" font-size="10.00" fill="#ffffff">PandasModelClass</text>
</g>
<!-- main_py -->
<g id="node7" class="node">
<title>main_py</title><style>.edge>path:hover{stroke-width:8}</style>
<ellipse fill="#4b4b8b" stroke="black" cx="402.7" cy="-18" rx="30.37" ry="18"/>
<text text-anchor="middle" x="402.7" y="-14.5" font-family="Helvetica,sans-Serif" font-size="10.00" fill="#ffffff">main.py</text>
</g>
<!-- PandasModelClass&#45;&gt;main_py -->
<g id="edge1" class="edge">
<title>PandasModelClass&#45;&gt;main_py</title><style>.edge>path:hover{stroke-width:8}</style>
<path fill="none" stroke="black" d="M445.22,-181.72C419.91,-157.38 380.02,-110.36 402.7,-73"/>
</g>
<!-- QLoadingMessageBox -->
<g id="node2" class="node">
<title>QLoadingMessageBox</title><style>.edge>path:hover{stroke-width:8}</style>
<ellipse fill="#b69553" stroke="black" cx="68.7" cy="-127" rx="68.7" ry="18"/>
<text text-anchor="middle" x="68.7" y="-123.5" font-family="Helvetica,sans-Serif" font-size="10.00" fill="#000000">QLoadingMessageBox</text>
</g>
<!-- QLoadingMessageBox&#45;&gt;main_py -->
<g id="edge2" class="edge">
<title>QLoadingMessageBox&#45;&gt;main_py</title><style>.edge>path:hover{stroke-width:8}</style>
<path fill="none" stroke="black" d="M402.7,-72C407.22,-64.56 408.4,-55.39 408.09,-46.77"/>
<polygon fill="#b69553" stroke="black" points="411.48,-46.56 406.98,-36.97 404.52,-47.27 411.48,-46.56"/>
<path fill="none" stroke="black" d="M118.71,-114.37C127.67,-112.45 136.95,-110.58 145.7,-109 202.46,-98.78 372.78,-122.3 402.7,-73"/>
</g>
<!-- QMeasurement -->
<g id="node3" class="node">
<title>QMeasurement</title><style>.edge>path:hover{stroke-width:8}</style>
<ellipse fill="#91b34c" stroke="black" cx="204.7" cy="-127" rx="49.76" ry="18"/>
<text text-anchor="middle" x="204.7" y="-123.5" font-family="Helvetica,sans-Serif" font-size="10.00" fill="#000000">QMeasurement</text>
</g>
<!-- QMeasurement&#45;&gt;main_py -->
<g id="edge3" class="edge">
<title>QMeasurement&#45;&gt;main_py</title><style>.edge>path:hover{stroke-width:8}</style>
<path fill="none" stroke="black" d="M242.43,-114.96C249.49,-112.95 256.81,-110.88 263.7,-109 325.26,-92.16 369.59,-127.55 402.7,-73"/>
</g>
<!-- addConstantDialog -->
<g id="node4" class="node">
<title>addConstantDialog</title><style>.edge>path:hover{stroke-width:8}</style>
<ellipse fill="#53b653" stroke="black" cx="489.7" cy="-127" rx="58.78" ry="18"/>
<text text-anchor="middle" x="489.7" y="-123.5" font-family="Helvetica,sans-Serif" font-size="10.00" fill="#000000">addConstantDialog</text>
</g>
<!-- addConstantDialog&#45;&gt;main_py -->
<g id="edge4" class="edge">
<title>addConstantDialog&#45;&gt;main_py</title><style>.edge>path:hover{stroke-width:8}</style>
<path fill="none" stroke="black" d="M442.92,-115.81C416.12,-107.53 390.08,-93.79 402.7,-73"/>
</g>
<!-- arrayConversion -->
<g id="node5" class="node">
<title>arrayConversion</title><style>.edge>path:hover{stroke-width:8}</style>
<ellipse fill="#49ac8b" stroke="black" cx="323.7" cy="-127" rx="51.11" ry="18"/>
<text text-anchor="middle" x="323.7" y="-123.5" font-family="Helvetica,sans-Serif" font-size="10.00" fill="#000000">arrayConversion</text>
</g>
<!-- arrayConversion&#45;&gt;main_py -->
<g id="edge5" class="edge">
<title>arrayConversion&#45;&gt;main_py</title><style>.edge>path:hover{stroke-width:8}</style>
<path fill="none" stroke="black" d="M355.77,-112.64C372.6,-103.91 391.9,-90.79 402.7,-73"/>
</g>
<!-- improvedFunctions -->
<g id="node6" class="node">
<title>improvedFunctions</title><style>.edge>path:hover{stroke-width:8}</style>
<ellipse fill="#4c91b3" stroke="black" cx="327.7" cy="-199" rx="58.33" ry="18"/>
<text text-anchor="middle" x="327.7" y="-195.5" font-family="Helvetica,sans-Serif" font-size="10.00" fill="#000000">improvedFunctions</text>
</g>
<!-- improvedFunctions&#45;&gt;arrayConversion -->
<g id="edge6" class="edge">
<title>improvedFunctions&#45;&gt;arrayConversion</title><style>.edge>path:hover{stroke-width:8}</style>
<path fill="none" stroke="black" d="M326.71,-180.7C326.29,-173.24 325.78,-164.32 325.3,-155.97"/>
<polygon fill="#4c91b3" stroke="black" points="328.75,-155.89 324.68,-146.1 321.76,-156.29 328.75,-155.89"/>
</g>
<!-- pandas -->
<g id="node8" class="node">
<title>pandas</title><style>.edge>path:hover{stroke-width:8}</style>
<ellipse fill="#9933cc" stroke="black" cx="395.7" cy="-271" rx="28.56" ry="18"/>
<text text-anchor="middle" x="395.7" y="-267.5" font-family="Helvetica,sans-Serif" font-size="10.00" fill="#ffffff">pandas</text>
</g>
<!-- pandas&#45;&gt;PandasModelClass -->
<g id="edge7" class="edge">
<title>pandas&#45;&gt;PandasModelClass</title><style>.edge>path:hover{stroke-width:8}</style>
<path fill="none" stroke="black" d="M410.12,-255.15C418.74,-246.29 429.89,-234.8 439.79,-224.61"/>
<polygon fill="#9933cc" stroke="black" points="441.94,-227.4 446.39,-217.79 436.92,-222.52 441.94,-227.4"/>
</g>
<!-- pandas&#45;&gt;improvedFunctions -->
<g id="edge8" class="edge">
<title>pandas&#45;&gt;improvedFunctions</title><style>.edge>path:hover{stroke-width:8}</style>
<path fill="none" stroke="black" d="M381.28,-255.15C372.55,-246.16 361.19,-234.47 351.19,-224.18"/>
<polygon fill="#9933cc" stroke="black" points="354.01,-222.02 344.53,-217.29 348.99,-226.9 354.01,-222.02"/>
</g>
<!-- valueConversion -->
<g id="node9" class="node">
<title>valueConversion</title><style>.edge>path:hover{stroke-width:8}</style>
<ellipse fill="#c24799" stroke="black" cx="200.7" cy="-199" rx="51.11" ry="18"/>
<text text-anchor="middle" x="200.7" y="-195.5" font-family="Helvetica,sans-Serif" font-size="10.00" fill="#ffffff">valueConversion</text>
</g>
<!-- valueConversion&#45;&gt;QMeasurement -->
<g id="edge9" class="edge">
<title>valueConversion&#45;&gt;QMeasurement</title><style>.edge>path:hover{stroke-width:8}</style>
<path fill="none" stroke="black" d="M201.69,-180.7C202.12,-173.24 202.63,-164.32 203.1,-155.97"/>
<polygon fill="#c24799" stroke="black" points="206.65,-156.29 203.73,-146.1 199.66,-155.89 206.65,-156.29"/>
</g>
<!-- valueConversion&#45;&gt;arrayConversion -->
<g id="edge10" class="edge">
<title>valueConversion&#45;&gt;arrayConversion</title><style>.edge>path:hover{stroke-width:8}</style>
<path fill="none" stroke="black" d="M226.79,-183.15C244.64,-172.99 268.54,-159.39 288.14,-148.24"/>
<polygon fill="#c24799" stroke="black" points="289.7,-150.81 296.66,-142.82 286.23,-144.73 289.7,-150.81"/>
</g>
</g>
</svg>
